:SAMPLES-PER-SECOND 30
:FULLY-SPECIFIED
:DEGREES
193
root  -53.3313 41.2862 23.1567 -170.423 -73.8002 169.066
RightUpLeg  -1.17089 -12.1066 -8.10693
RightLeg  10.8515 -18.3269 2.43829
RightFoot  -5.9045 -0.00709777 -0.652989
RightToes  0.00048216 0.542163 -0.142577
Spine  7.32063 -0.672607 2.29887
Spine1  1.56378 -0.266078 -1.04225
HEad  -12.6106 -19.2427 4.51575
LeftShoulder1  1.36442 -3.86231 -11.2935
LeftArm  -19.505 16.7563 -9.06454
LeftForeArm  21.7814 -7.55362 -0.751006
LeftHand  -0.25398 0.0180481 5.50724
RightShoulder  0.202756 -1.84921 4.37519
RightArm  -35.0214 -3.69043 3.26434
RightForeArm  -8.54649 9.46511 1.13517
RightHand  -1.19438 2.78112 -17.1294
LeftUpLeg  -7.14103 8.6308 3.262
LeftLeg  6.01604 13.9526 -2.45456
LeftFoot  2.52307 0.393356 -3.34782
LeftToes  1.06245e-005 4.65855e-005 -8.18504e-006
194
root  -53.2493 41.3236 23.102 -168.239 -74.7011 166.773
RightUpLeg  -0.975382 -12.2746 -8.51039
RightLeg  10.704 -19.1511 2.41264
RightFoot  -5.74532 -0.0023658 -0.724892
RightToes  0.00048216 0.542163 -0.142577
Spine  7.39118 -0.611787 1.83075
Spine1  1.71082 -0.190992 -1.12608
HEad  -12.462 -20.2531 4.65092
LeftShoulder1  1.19309 -3.31956 -10.1442
LeftArm  -19.9791 17.2864 -9.43756
LeftForeArm  21.7618 -7.91643 -0.60663
LeftHand  -0.25398 0.0180481 5.50724
RightShoulder  0.136207 -2.34692 3.71518
RightArm  -35.0556 -3.0896 3.23674
RightForeArm  -7.99471 9.08367 1.04705
RightHand  -1.22428 3.01017 -17.0946
LeftUpLeg  -7.56314 11.3729 1.42539
LeftLeg  8.62093 12.4544 -1.41548
LeftFoot  0.172509 0.276828 -2.76011
LeftToes  1.06245e-005 4.65855e-005 -8.18504e-006
195
root  -53.2202 41.3476 23.0824 -166.691 -75.6527 165.203
RightUpLeg  -0.740942 -12.33 -8.7198
RightLeg  10.4988 -20.0081 2.42773
RightFoot  -5.57906 -0.00018908 -0.743812
RightToes  0.00048216 0.542163 -0.142577
Spine  6.8105 -0.591588 1.33107
Spine1  2.69418 -0.281067 -0.571346
HEad  -12.4265 -21.1404 4.5166
LeftShoulder1  0.962973 -2.07542 -9.85483
LeftArm  -21.3635 15.9141 -9.75134
LeftForeArm  22.0962 -6.32303 0.0776648
LeftHand  -0.25398 0.0180481 5.50724
RightShoulder  0.0280229 -3.24432 2.92715
RightArm  -35.2346 -1.81841 3.5899
RightForeArm  -6.95935 8.7494 0.992096
RightHand  -1.22205 3.10687 -16.8785
LeftUpLeg  -7.54615 13.8011 -0.239696
LeftLeg  10.5102 10.7983 -0.466163
LeftFoot  -1.56068 0.231634 -2.60737
LeftToes  1.06245e-005 4.65855e-005 -8.18504e-006
196
root  -53.2321 41.3419 23.1043 -166.424 -76.4557 164.877
RightUpLeg  -0.454376 -12.3308 -8.71002
RightLeg  10.4168 -20.6762 2.42702
RightFoot  -5.54632 -0.00612085 -0.627937
RightToes  0.00048216 0.542163 -0.142577
Spine  6.65049 -0.483575 1.34493
Spine1  2.45168 -0.189828 -0.377321
HEad  -11.3104 -22.0486 4.04365
LeftShoulder1  0.837988 -1.62856 -8.81078
LeftArm  -21.4032 15.6512 -10.1059
LeftForeArm  21.3845 -4.74375 0.320034
LeftHand  -0.25398 0.0180481 5.50724
RightShoulder  0.0196884 -3.31711 2.34961
RightArm  -34.8458 -1.55383 3.64611
RightForeArm  -6.22097 8.47471 0.996551
RightHand  -1.17189 2.81685 -16.7492
LeftUpLeg  -6.89903 15.5593 -1.40599
LeftLeg  11.6778 9.14626 0.127035
LeftFoot  -2.60413 0.22308 -2.71508
LeftToes  1.06245e-005 4.65855e-005 -8.18504e-006
197
root  -53.2827 41.3082 23.1743 -167.56 -77.114 165.892
RightUpLeg  -0.0932805 -12.3684 -8.56413
RightLeg  10.4736 -21.15 2.47382
RightFoot  -5.66901 -0.0177405 -0.419359
RightToes  0.00048216 0.542163 -0.142577
Spine  6.44273 -0.34468 1.44601
Spine1  2.25282 -0.123284 0.120205
HEad  -10.1357 -22.5876 3.14626
LeftShoulder1  0.740381 -1.21247 -8.10855
LeftArm  -19.4561 16.3176 -9.95071
LeftForeArm  18.7218 -5.04357 -0.543108
LeftHand  -0.25398 0.0180481 5.50724
RightShoulder  0.00269474 -3.47489 1.54381
RightArm  -34.742 -0.949606 4.02572
RightForeArm  -5.82248 8.09075 0.952582
RightHand  -1.11869 2.38078 -16.8629
LeftUpLeg  -5.49397 15.3251 -1.97941
LeftLeg  11.8198 8.63899 0.178946
LeftFoot  -3.58771 0.153022 -1.91955
LeftToes  1.06245e-005 4.65855e-005 -8.18504e-006
198
root  -53.373 41.2739 23.2831 -169.49 -77.7403 167.712
RightUpLeg  0.351094 -12.4512 -8.3805
RightLeg  10.4588 -21.442 2.6158
RightFoot  -5.7904 -0.0289588 -0.215399
RightToes  0.00048216 0.542163 -0.142577
Spine  5.99374 -0.151118 1.51378
Spine1  2.17647 -0.0638967 0.824195
HEad  -9.10436 -23.2442 2.10471
LeftShoulder1  0.743405 -1.27585 -7.94035
LeftArm  -17.8315 17.1674 -9.39325
LeftForeArm  16.985 -5.90999 -1.27715
LeftHand  -0.25398 0.0180481 5.50724
RightShoulder  -0.0198772 -3.74404 0.379792
RightArm  -34.522 -0.464792 4.71727
RightForeArm  -6.24043 7.88176 1.02784
RightHand  -1.11444 2.06808 -17.4647
LeftUpLeg  -3.62669 12.191 -2.04974
LeftLeg  10.5934 10.6904 -0.363513
LeftFoot  -4.62764 0.0285546 -0.00735879
LeftToes  1.06245e-005 4.65855e-005 -8.18504e-006
199
root  -53.4802 41.2695 23.4025 -170.819 -78.4011 168.972
RightUpLeg  0.839926 -12.6001 -8.30827
RightLeg  10.2291 -21.6431 2.71687
RightFoot  -5.78453 -0.0410244 0.0359196
RightToes  0.00048216 0.542163 -0.142577
Spine  5.19463 0.0920731 0.894579
Spine1  2.61593 -0.125189 2.09487
HEad  -8.53089 -24.1099 1.2948
LeftShoulder1  0.783277 -1.334 -8.65123
LeftArm  -18.7494 16.9083 -8.67571
LeftForeArm  18.9184 -5.48951 -0.731094
LeftHand  -0.25398 0.0180481 5.50724
RightShoulder  -0.0598816 -4.28214 -0.927411
RightArm  -34.2599 -0.0418715 5.67534
RightForeArm  -7.25364 7.91719 1.22009
RightHand  -1.19133 2.13024 -18.4861
LeftUpLeg  -1.96281 7.83713 -1.94229
LeftLeg  8.39315 14.2894 -1.37246
LeftFoot  -4.99918 -0.0777368 1.92401
LeftToes  1.06245e-005 4.65855e-005 -8.18504e-006
200
root  -53.5663 41.2991 23.5133 -170.095 -79.1925 168.186
RightUpLeg  1.28808 -12.8575 -8.50205
RightLeg  9.93119 -22.108 2.58718
RightFoot  -5.6865 -0.0604312 0.441317
RightToes  0.00048216 0.542163 -0.142577
Spine  4.65889 0.21411 -0.253384
Spine1  2.68705 -0.209845 2.79358
HEad  -7.92356 -25.0145 1.33996
LeftShoulder1  0.775947 -1.41346 -8.2026
LeftArm  -20.4566 16.7583 -8.8905
LeftForeArm  21.0865 -5.08998 0.0815281
LeftHand  -0.25398 0.0180481 5.50724
RightShoulder  -0.0537068 -4.19372 -0.623478
RightArm  -33.6012 -0.23424 5.59667
RightForeArm  -7.70496 7.90716 1.37759
RightHand  -1.29689 2.4858 -19.2226
LeftUpLeg  -0.83319 4.88279 -1.95875
LeftLeg  6.12341 16.6649 -2.59426
LeftFoot  -4.2947 -0.164109 3.08173
LeftToes  1.06245e-005 4.65855e-005 -8.18504e-006
201
root  -53.6251 41.3423 23.6342 -167.218 -80.2119 165.242
RightUpLeg  1.66805 -13.1512 -8.95116
RightLeg  9.74178 -22.9798 2.28026
RightFoot  -5.55365 -0.0849387 0.933406
RightToes  0.00048216 0.542163 -0.142577
Spine  4.50288 0.155615 -1.52402
Spine1  2.36536 -0.334283 2.89779
HEad  -7.30437 -25.6928 1.78755
LeftShoulder1  0.754412 -1.60004 -7.08981
LeftArm  -20.4682 17.0747 -9.38836
LeftForeArm  19.998 -5.58026 -0.0553727
LeftHand  -0.25398 0.0180481 5.50724
RightShoulder  -0.0211153 -3.73595 0.801264
RightArm  -32.5913 -0.839818 4.84623
RightForeArm  -6.72626 7.68075 1.41153
RightHand  -1.30417 2.54716 -19.1787
LeftUpLeg  0.0132597 3.45347 -2.237
LeftLeg  4.18827 17.113 -3.74223
LeftFoot  -3.12983 -0.245128 3.67973
LeftToes  1.06245e-005 4.65855e-005 -8.18504e-006
202
root  -53.6867 41.3738 23.797 -163.704 -81.4195 161.696
RightUpLeg  2.0539 -13.3419 -9.4449
RightLeg  9.58518 -23.9021 2.07864
RightFoot  -5.40475 -0.109242 1.39773
RightToes  0.00048216 0.542163 -0.142577
Spine  4.42499 -0.0381514 -2.31777
Spine1  2.03938 -0.50726 2.67027
HEad  -6.84212 -26.1477 2.03367
LeftShoulder1  0.733564 -1.77393 -6.11744
LeftArm  -19.4719 17.0866 -9.86843
LeftForeArm  16.8371 -6.01756 -0.703641
LeftHand  -0.25398 0.0180481 5.50724
RightShoulder  0.00431657 -3.46166 2.22896
RightArm  -31.0672 -1.49902 4.05879
RightForeArm  -5.47937 7.32421 1.51712
RightHand  -1.16628 1.88235 -18.699
LeftUpLeg  0.824706 2.73026 -2.67263
LeftLeg  2.52022 16.4206 -4.51441
LeftFoot  -2.35305 -0.300245 4.00235
LeftToes  1.06245e-005 4.65855e-005 -8.18504e-006
203
root  -53.7653 41.3741 23.999 -161.14 -82.71 159.171
RightUpLeg  2.48177 -13.5229 -9.78484
RightLeg  9.38161 -24.6793 2.11891
RightFoot  -5.33607 -0.137107 1.92221
RightToes  0.00048216 0.542163 -0.142577
Spine  4.37029 -0.218573 -2.48216
Spine1  1.48767 -0.641137 2.40196
HEad  -6.26381 -26.6488 1.82456
LeftShoulder1  0.75395 -2.16907 -5.43963
LeftArm  -19.3926 16.7336 -10.3302
LeftForeArm  16.4818 -5.4635 -0.738083
LeftHand  -0.25398 0.0180481 5.50724
RightShoulder  0.0282124 -3.24784 2.9705
RightArm  -29.2158 -2.50341 3.48478
RightForeArm  -5.48153 6.82459 1.74833
RightHand  -0.978757 0.81871 -18.3247
LeftUpLeg  1.37187 2.65247 -2.87381
LeftLeg  1.46846 15.0562 -4.91097
LeftFoot  -2.17925 -0.312024 4.05703
LeftToes  1.06245e-005 4.65855e-005 -8.18504e-006
